<svg width="19" height="19" viewBox="0 0 19 19" fill="none" xmlns="http://www.w3.org/2000/svg">
<path d="M2.31294 5.17612C2.31294 4.61053 2.31328 4.21629 2.3353 3.90807C2.35693 3.60531 2.39735 3.42953 2.4558 3.29555C2.62854 2.89963 2.94455 2.58362 3.34047 2.41088C3.47445 2.35243 3.65024 2.31201 3.95299 2.29038C4.26121 2.26835 4.65545 2.26802 5.22104 2.26802C5.78664 2.26802 6.18088 2.26835 6.4891 2.29038C6.79185 2.31201 6.96764 2.35243 7.10162 2.41088C7.49754 2.58362 7.81355 2.89963 7.98629 3.29555C8.04474 3.42953 8.08516 3.60531 8.10679 3.90807C8.12881 4.21629 8.12915 4.61053 8.12915 5.17612C8.12915 5.74171 8.12881 6.13596 8.10679 6.44418C8.08516 6.74693 8.04474 6.92271 7.98629 7.05669C7.81355 7.45262 7.49754 7.76862 7.10162 7.94136C6.96764 7.99982 6.79185 8.04024 6.4891 8.06187C6.18088 8.08389 5.78664 8.08423 5.22104 8.08423C4.65545 8.08423 4.26121 8.08389 3.95299 8.06187C3.65024 8.04024 3.47445 7.99982 3.34047 7.94136C2.94455 7.76862 2.62854 7.45262 2.4558 7.05669C2.39735 6.92271 2.35693 6.74693 2.3353 6.44418C2.31328 6.13596 2.31294 5.74171 2.31294 5.17612Z" stroke="#242220" stroke-width="1.1415"/>
<path d="M2.31294 13.4398C2.31294 12.8742 2.31328 12.48 2.3353 12.1717C2.35693 11.869 2.39735 11.6932 2.4558 11.5592C2.62854 11.1633 2.94455 10.8473 3.34047 10.6746C3.47445 10.6161 3.65024 10.5757 3.95299 10.554C4.26121 10.532 4.65545 10.5317 5.22104 10.5317C5.78664 10.5317 6.18088 10.532 6.4891 10.554C6.79185 10.5757 6.96764 10.6161 7.10162 10.6746C7.49754 10.8473 7.81355 11.1633 7.98629 11.5592C8.04474 11.6932 8.08516 11.869 8.10679 12.1717C8.12881 12.48 8.12915 12.8742 8.12915 13.4398C8.12915 14.0054 8.12881 14.3996 8.10679 14.7079C8.08516 15.0106 8.04474 15.1864 7.98629 15.3204C7.81355 15.7163 7.49754 16.0323 7.10162 16.205C6.96764 16.2635 6.79185 16.3039 6.4891 16.3255C6.18088 16.3476 5.78664 16.3479 5.22104 16.3479C4.65545 16.3479 4.26121 16.3476 3.95299 16.3255C3.65024 16.3039 3.47445 16.2635 3.34047 16.205C2.94455 16.0323 2.62854 15.7163 2.4558 15.3204C2.39735 15.1864 2.35693 15.0106 2.3353 14.7079C2.31328 14.3996 2.31294 14.0054 2.31294 13.4398Z" stroke="#242220" stroke-width="1.1415"/>
<path d="M10.5747 5.17612C10.5747 4.61053 10.575 4.21629 10.597 3.90807C10.6186 3.60531 10.6591 3.42953 10.7175 3.29555C10.8903 2.89963 11.2063 2.58362 11.6022 2.41088C11.7362 2.35243 11.912 2.31201 12.2147 2.29038C12.5229 2.26835 12.9172 2.26802 13.4828 2.26802C14.0484 2.26802 14.4426 2.26835 14.7508 2.29038C15.0536 2.31201 15.2294 2.35243 15.3633 2.41088C15.7593 2.58362 16.0753 2.89963 16.248 3.29555C16.3065 3.42953 16.3469 3.60531 16.3685 3.90807C16.3905 4.21629 16.3909 4.61053 16.3909 5.17612C16.3909 5.74171 16.3905 6.13596 16.3685 6.44418C16.3469 6.74693 16.3065 6.92271 16.248 7.05669C16.0753 7.45262 15.7593 7.76862 15.3633 7.94136C15.2294 7.99982 15.0536 8.04024 14.7508 8.06187C14.4426 8.08389 14.0484 8.08423 13.4828 8.08423C12.9172 8.08423 12.5229 8.08389 12.2147 8.06187C11.912 8.04024 11.7362 7.99982 11.6022 7.94136C11.2063 7.76862 10.8903 7.45262 10.7175 7.05669C10.6591 6.92271 10.6186 6.74693 10.597 6.44418C10.575 6.13596 10.5747 5.74171 10.5747 5.17612Z" stroke="#242220" stroke-width="1.1415"/>
<path d="M10.5747 13.4398C10.5747 12.8742 10.575 12.48 10.597 12.1717C10.6186 11.869 10.6591 11.6932 10.7175 11.5592C10.8903 11.1633 11.2063 10.8473 11.6022 10.6746C11.7362 10.6161 11.912 10.5757 12.2147 10.554C12.5229 10.532 12.9172 10.5317 13.4828 10.5317C14.0484 10.5317 14.4426 10.532 14.7508 10.554C15.0536 10.5757 15.2294 10.6161 15.3633 10.6746C15.7593 10.8473 16.0753 11.1633 16.248 11.5592C16.3065 11.6932 16.3469 11.869 16.3685 12.1717C16.3905 12.48 16.3909 12.8742 16.3909 13.4398C16.3909 14.0054 16.3905 14.3996 16.3685 14.7079C16.3469 15.0106 16.3065 15.1864 16.248 15.3204C16.0753 15.7163 15.7593 16.0323 15.3633 16.205C15.2294 16.2635 15.0536 16.3039 14.7508 16.3255C14.4426 16.3476 14.0484 16.3479 13.4828 16.3479C12.9172 16.3479 12.5229 16.3476 12.2147 16.3255C11.912 16.3039 11.7362 16.2635 11.6022 16.205C11.2063 16.0323 10.8903 15.7163 10.7175 15.3204C10.6591 15.1864 10.6186 15.0106 10.597 14.7079C10.575 14.3996 10.5747 14.0054 10.5747 13.4398Z" stroke="#242220" stroke-width="1.1415"/>
</svg>
