<svg width="19" height="20" viewBox="0 0 19 20" fill="none" xmlns="http://www.w3.org/2000/svg">
<path d="M3.55192 1.75938C3.71367 1.76371 3.84262 1.81525 3.98558 1.88754C4.03603 1.91156 4.08647 1.93558 4.13692 1.95959C4.21511 1.99766 4.29318 2.03597 4.37117 2.07445C4.44724 2.11172 4.52369 2.14809 4.60021 2.18442C4.62329 2.19616 4.64637 2.20791 4.67016 2.22001C4.78568 2.27452 4.85023 2.29354 4.97652 2.2669C5.01259 2.2503 5.04866 2.2337 5.08582 2.2166C5.14153 2.19219 5.14153 2.19219 5.19836 2.16729C5.23728 2.14903 5.2762 2.13076 5.3163 2.11194C5.38102 2.08216 5.38102 2.08216 5.44705 2.05178C5.53706 2.01029 5.62675 1.96826 5.71639 1.92595C5.78125 1.89632 5.78125 1.89632 5.84743 1.86609C5.88644 1.8479 5.92544 1.82972 5.96563 1.81098C6.2288 1.72545 6.41639 1.76563 6.65746 1.88754C6.7079 1.91156 6.75835 1.93558 6.80879 1.95959C6.88699 1.99766 6.96505 2.03597 7.04305 2.07445C7.11911 2.11172 7.19556 2.14809 7.27208 2.18442C7.29517 2.19616 7.31825 2.20791 7.34203 2.22001C7.45755 2.27452 7.5221 2.29354 7.64839 2.2669C7.68446 2.2503 7.72053 2.2337 7.75769 2.2166C7.8134 2.19219 7.8134 2.19219 7.87024 2.16729C7.90916 2.14903 7.94808 2.13076 7.98818 2.11194C8.03133 2.09208 8.07447 2.07223 8.11893 2.05178C8.20894 2.01029 8.29863 1.96826 8.38826 1.92595C8.45313 1.89632 8.45313 1.89632 8.51931 1.86609C8.55831 1.8479 8.59731 1.82972 8.6375 1.81098C8.90068 1.72545 9.08827 1.76563 9.32933 1.88754C9.37978 1.91156 9.43022 1.93558 9.48067 1.95959C9.55886 1.99766 9.63693 2.03597 9.71492 2.07445C9.79099 2.11172 9.86744 2.14809 9.94396 2.18442C9.96704 2.19616 9.99012 2.20791 10.0139 2.22001C10.1294 2.27452 10.194 2.29354 10.3203 2.2669C10.3563 2.2503 10.3924 2.2337 10.4296 2.2166C10.4853 2.19219 10.4853 2.19219 10.5421 2.16729C10.581 2.14903 10.62 2.13076 10.6601 2.11194C10.7032 2.09208 10.7463 2.07223 10.7908 2.05178C10.8808 2.01029 10.9705 1.96826 11.0601 1.92595C11.1034 1.9062 11.1466 1.88644 11.1912 1.86609C11.2302 1.8479 11.2692 1.82972 11.3094 1.81098C11.5726 1.72545 11.7601 1.76563 12.0012 1.88754C12.0517 1.91156 12.1021 1.93558 12.1525 1.95959C12.2307 1.99766 12.3088 2.03597 12.3868 2.07445C12.4629 2.11172 12.5393 2.14809 12.6158 2.18442C12.6389 2.19616 12.662 2.20791 12.6858 2.22001C12.8013 2.27452 12.8659 2.29354 12.9921 2.2669C13.0282 2.2503 13.0643 2.2337 13.1014 2.2166C13.1572 2.19219 13.1572 2.19219 13.214 2.16729C13.2529 2.14903 13.2918 2.13076 13.3319 2.11194C13.3751 2.09208 13.4182 2.07223 13.4627 2.05178C13.5527 2.01029 13.6424 1.96826 13.732 1.92595C14.1522 1.73399 14.1522 1.73399 14.4003 1.77128C14.4745 1.8455 14.4745 1.8455 14.4837 1.91516C14.4837 1.95807 14.4837 1.95807 14.4836 2.00184C14.4838 2.03482 14.4839 2.0678 14.4841 2.10179C14.4839 2.13824 14.4836 2.1747 14.4834 2.21227C14.4835 2.2701 14.4835 2.2701 14.4836 2.3291C14.4837 2.45913 14.4833 2.58915 14.4829 2.71919C14.4829 2.81206 14.4829 2.90494 14.4829 2.99781C14.483 3.1982 14.4828 3.39858 14.4823 3.59897C14.4817 3.88869 14.4815 4.17842 14.4814 4.46814C14.4813 4.93817 14.4808 5.4082 14.4801 5.87823C14.4794 6.3349 14.4789 6.79157 14.4786 7.24823C14.4785 7.27637 14.4785 7.3045 14.4785 7.33349C14.4784 7.47463 14.4783 7.61578 14.4782 7.75692C14.4775 8.92838 14.4761 10.0998 14.4745 11.2713C14.5246 11.2705 14.5246 11.2705 14.5757 11.2698C14.8923 11.2653 15.2089 11.2619 15.5256 11.2597C15.6883 11.2586 15.851 11.257 16.0137 11.2545C16.1711 11.252 16.3284 11.2507 16.4858 11.2502C16.5455 11.2498 16.6052 11.249 16.6649 11.2477C17.0708 11.2398 17.4138 11.2801 17.7369 11.5542C18.0399 11.8768 18.0589 12.2419 18.0574 12.6636C18.0577 12.7214 18.0581 12.7792 18.0585 12.8371C18.0595 12.9933 18.0596 13.1496 18.0594 13.3058C18.0593 13.4367 18.0597 13.5675 18.06 13.6984C18.0608 14.0073 18.0609 14.3163 18.0604 14.6252C18.06 14.943 18.0609 15.2607 18.0625 15.5785C18.0638 15.8522 18.0642 16.1258 18.064 16.3995C18.0638 16.5626 18.064 16.7256 18.0651 16.8887C18.066 17.0422 18.0659 17.1957 18.0649 17.3492C18.0647 17.4052 18.0649 17.4612 18.0655 17.5172C18.0695 17.9062 18.0132 18.2353 17.7541 18.5418C17.4199 18.8543 17.0422 18.8631 16.6072 18.8607C16.5446 18.8609 16.4821 18.8612 16.4195 18.8615C16.248 18.8622 16.0766 18.8619 15.9052 18.8615C15.7201 18.8613 15.535 18.8619 15.3499 18.8624C14.9875 18.8632 14.625 18.8632 14.2626 18.8629C13.968 18.8626 13.6733 18.8627 13.3787 18.8629C13.3367 18.8629 13.2948 18.863 13.2516 18.863C13.1663 18.8631 13.0811 18.8631 12.9959 18.8632C12.1968 18.8638 11.3977 18.8635 10.5986 18.8629C9.86786 18.8623 9.13712 18.8629 8.40637 18.8639C7.65574 18.865 6.90511 18.8654 6.15448 18.8651C6.06953 18.8651 5.98459 18.865 5.89965 18.865C5.85785 18.865 5.81606 18.8649 5.773 18.8649C5.47886 18.8648 5.18472 18.8652 4.89058 18.8658C4.5319 18.8664 4.17324 18.8664 3.81456 18.8656C3.63164 18.8651 3.44874 18.865 3.26582 18.8657C3.09818 18.8663 2.93057 18.8661 2.76294 18.8652C2.70248 18.865 2.64202 18.8651 2.58157 18.8656C2.08047 18.8693 1.68042 18.7758 1.30806 18.419C1.11827 18.1935 0.962343 17.8979 0.961716 17.599C0.961558 17.5649 0.961399 17.5308 0.961236 17.4957C0.961253 17.4584 0.96127 17.4211 0.961287 17.3827C0.961163 17.3433 0.961038 17.304 0.960909 17.2634C0.960556 17.1331 0.960484 17.0027 0.960445 16.8723C0.960325 16.782 0.960201 16.6916 0.96007 16.6013C0.959848 16.4118 0.959779 16.2224 0.959801 16.0329C0.959805 15.7896 0.959298 15.5463 0.958659 15.303C0.958248 15.1164 0.958172 14.9298 0.958191 14.7433C0.958147 14.6535 0.957982 14.5638 0.957696 14.4741C0.957335 14.3489 0.957439 14.2237 0.957663 14.0985C0.957455 14.0611 0.957246 14.0237 0.957031 13.9852C0.957187 13.9512 0.957343 13.9172 0.957503 13.8822C0.957483 13.8526 0.957463 13.823 0.957442 13.7925C0.966678 13.7205 0.966678 13.7205 1.0409 13.6463C1.13717 13.6374 1.13717 13.6374 1.26053 13.6379C1.30658 13.6379 1.35264 13.6379 1.4001 13.6379C1.45054 13.6383 1.50099 13.6386 1.55144 13.639C1.60292 13.6392 1.6544 13.6393 1.70587 13.6394C1.84143 13.6396 1.97699 13.6404 2.11255 13.6412C2.25085 13.6419 2.38915 13.6423 2.52745 13.6427C2.79886 13.6435 3.07027 13.6447 3.34168 13.6463C3.34165 13.6213 3.34162 13.5964 3.34159 13.5707C3.33993 12.0938 3.33866 10.6169 3.33789 9.14003C3.3378 8.96286 3.3377 8.78569 3.3376 8.60852C3.33758 8.57325 3.33756 8.53798 3.33754 8.50164C3.33722 7.92984 3.33663 7.35805 3.33595 6.78625C3.33526 6.19993 3.33485 5.61361 3.33469 5.02729C3.33459 4.66523 3.33427 4.30318 3.33367 3.94112C3.33328 3.69315 3.33316 3.44518 3.33325 3.19721C3.3333 3.05395 3.33323 2.9107 3.33283 2.76744C3.33241 2.61244 3.33255 2.45744 3.33275 2.30243C3.33254 2.25673 3.33232 2.21103 3.3321 2.16395C3.33225 2.12269 3.33239 2.08144 3.33255 2.03893C3.33252 2.00311 3.33249 1.96729 3.33246 1.93039C3.349 1.77811 3.40607 1.77214 3.55192 1.75938ZM5.95064 2.36735C5.89982 2.39106 5.84899 2.41473 5.79814 2.43838C5.71814 2.47575 5.63823 2.51327 5.55853 2.55127C5.4815 2.5879 5.40416 2.62379 5.32674 2.65959C5.30334 2.67095 5.27994 2.68232 5.25584 2.69403C5.03895 2.7931 4.86259 2.80833 4.63356 2.73577C4.59648 2.71866 4.5594 2.70156 4.5212 2.68394C4.48047 2.66553 4.43974 2.64711 4.39777 2.62813C4.35618 2.60866 4.31459 2.5892 4.27173 2.56914C4.18792 2.53083 4.10408 2.49256 4.02023 2.45433C3.98345 2.43723 3.94666 2.42013 3.90876 2.40251C3.83387 2.36253 3.83387 2.36253 3.78699 2.36503C3.78698 2.39745 3.78697 2.42987 3.78697 2.46327C3.78646 4.38486 3.785 6.30646 3.78228 8.22805C3.78196 8.45881 3.78164 8.68957 3.78133 8.92033C3.78127 8.96627 3.7812 9.01221 3.78114 9.05954C3.78015 9.80326 3.77981 10.547 3.77972 11.2907C3.7796 12.0539 3.77879 12.8171 3.77732 13.5803C3.77644 14.0512 3.7761 14.5221 3.77647 14.993C3.77667 15.3159 3.77618 15.6389 3.77516 15.9619C3.7746 16.1481 3.77433 16.3344 3.77487 16.5207C3.77536 16.6915 3.77499 16.8622 3.77395 17.0329C3.77372 17.0945 3.77381 17.1561 3.77424 17.2177C3.77719 17.6735 3.68998 18.0013 3.45301 18.3963C5.045 18.3963 6.63699 18.3963 8.27722 18.3963C8.22824 18.2738 8.17926 18.1514 8.12879 18.0252C8.1099 17.888 8.1099 17.888 8.10944 17.7582C8.10901 17.7218 8.10901 17.7218 8.10858 17.6847C8.10782 17.6048 8.10811 17.525 8.1084 17.4451C8.10808 17.3873 8.10769 17.3294 8.10725 17.2716C8.10626 17.1155 8.10622 16.9594 8.1064 16.8033C8.10648 16.6725 8.10612 16.5418 8.10577 16.411C8.10494 16.1023 8.10491 15.7936 8.10536 15.4849C8.10581 15.1674 8.10489 14.8499 8.10331 14.5324C8.102 14.2589 8.10156 13.9854 8.1018 13.7119C8.10193 13.5489 8.10175 13.386 8.10071 13.223C8.09977 13.0697 8.09992 12.9164 8.10089 12.763C8.10106 12.7071 8.10086 12.6511 8.10025 12.5952C8.09657 12.2357 8.14209 11.9449 8.35144 11.6424C8.44408 11.5508 8.5334 11.4809 8.64832 11.4197C8.69971 11.3913 8.69971 11.3913 8.75213 11.3623C8.96097 11.2744 9.18489 11.2921 9.40767 11.2923C9.45898 11.292 9.51029 11.2916 9.56159 11.2912C9.69843 11.2902 9.83527 11.2898 9.97211 11.2896C10.1007 11.2893 10.2293 11.2884 10.358 11.2875C10.7336 11.2854 11.1092 11.2842 11.4849 11.2829C12.3245 11.2791 13.1641 11.2752 14.0292 11.2713C14.0292 8.33222 14.0292 5.39316 14.0292 2.36503C13.731 2.47972 13.4615 2.58743 13.1819 2.73105C12.9843 2.80195 12.8256 2.79418 12.6317 2.72437C12.5857 2.70244 12.5401 2.67995 12.4946 2.65698C12.4442 2.63296 12.3938 2.60895 12.3433 2.58494C12.2651 2.54686 12.1871 2.50855 12.1091 2.47007C12.033 2.4328 11.9565 2.39643 11.88 2.36011C11.8569 2.34836 11.8339 2.33661 11.8101 2.32451C11.6946 2.27 11.63 2.25098 11.5037 2.27762C11.4676 2.29422 11.4316 2.31082 11.3944 2.32792C11.3387 2.35233 11.3387 2.35233 11.2819 2.37723C11.2429 2.3955 11.204 2.41376 11.1639 2.43258C11.1208 2.45244 11.0776 2.47229 11.0332 2.49274C10.9432 2.53423 10.8535 2.57627 10.7638 2.61857C10.7206 2.63832 10.6774 2.65808 10.6328 2.67843C10.5938 2.69662 10.5548 2.7148 10.5146 2.73354C10.2514 2.81908 10.0638 2.77889 9.82277 2.65698C9.77233 2.63296 9.72188 2.60895 9.67144 2.58494C9.59324 2.54686 9.51518 2.50855 9.43718 2.47007C9.36112 2.4328 9.28467 2.39643 9.20815 2.36011C9.18507 2.34836 9.16198 2.33661 9.1382 2.32451C9.02268 2.27 8.95813 2.25098 8.83184 2.27762C8.79577 2.29422 8.7597 2.31082 8.72254 2.32792C8.66683 2.35233 8.66683 2.35233 8.60999 2.37723C8.57107 2.3955 8.53215 2.41376 8.49205 2.43258C8.4489 2.45244 8.40576 2.47229 8.3613 2.49274C8.27129 2.53423 8.1816 2.57627 8.09197 2.61857C8.04872 2.63832 8.00548 2.65808 7.96093 2.67843C7.90242 2.70571 7.90242 2.70571 7.84273 2.73354C7.57959 2.81906 7.38866 2.7776 7.14568 2.65959C7.12074 2.64806 7.0958 2.63653 7.07011 2.62465C6.99135 2.58811 6.91297 2.55083 6.8346 2.51347C6.75537 2.47626 6.67607 2.43922 6.5967 2.4023C6.54754 2.37937 6.49847 2.35625 6.44951 2.33292C6.23513 2.23187 6.15676 2.26914 5.95064 2.36735ZM8.53699 13.4978C8.53699 13.9387 8.53699 14.3796 8.53699 14.8338C11.525 14.8338 14.5131 14.8338 17.5917 14.8338C17.5917 14.3929 17.5917 13.9521 17.5917 13.4978C14.6036 13.4978 11.6156 13.4978 8.53699 13.4978Z" fill="black"/>
<path d="M5.39694 9.48076C5.42555 9.48092 5.45416 9.48109 5.48364 9.48126C5.52912 9.48108 5.52912 9.48108 5.57551 9.48091C5.67768 9.48061 5.77984 9.48085 5.882 9.48108C5.95502 9.48098 6.02803 9.48085 6.10104 9.48068C6.29977 9.48034 6.49849 9.48048 6.69722 9.48071C6.90481 9.4809 7.11239 9.48073 7.31997 9.48061C7.66863 9.48047 8.01728 9.48065 8.36594 9.48101C8.76953 9.48141 9.17312 9.48128 9.5767 9.48087C9.92268 9.48053 10.2687 9.48049 10.6146 9.48068C10.8215 9.4808 11.0284 9.48081 11.2352 9.48057C11.4297 9.48035 11.6241 9.4805 11.8186 9.48093C11.8901 9.48103 11.9617 9.481 12.0332 9.48084C12.1305 9.48063 12.2278 9.48089 12.3251 9.48126C12.3537 9.48109 12.3824 9.48093 12.4118 9.48076C12.6069 9.48221 12.6069 9.48221 12.6895 9.5649C12.6994 9.63448 12.6994 9.63448 12.6988 9.71334C12.6991 9.75237 12.6991 9.75237 12.6994 9.7922C12.6895 9.86178 12.6895 9.86178 12.6153 9.93599C12.5173 9.94333 12.4232 9.94599 12.3251 9.94542C12.2797 9.94559 12.2797 9.94559 12.2333 9.94577C12.1311 9.94607 12.0289 9.94583 11.9268 9.9456C11.8538 9.9457 11.7807 9.94583 11.7077 9.94599C11.509 9.94633 11.3103 9.9462 11.1116 9.94596C10.904 9.94578 10.6964 9.94595 10.4888 9.94607C10.1401 9.9462 9.79149 9.94602 9.44284 9.94567C9.03925 9.94527 8.63566 9.9454 8.23207 9.94581C7.8861 9.94614 7.54012 9.94619 7.19414 9.946C6.98727 9.94588 6.7804 9.94587 6.57353 9.94611C6.37908 9.94632 6.18464 9.94618 5.99019 9.94575C5.91865 9.94565 5.84711 9.94568 5.77557 9.94584C5.67826 9.94604 5.58095 9.94579 5.48364 9.94542C5.45503 9.94558 5.42642 9.94575 5.39694 9.94592C5.20192 9.94447 5.20192 9.94447 5.11923 9.86178C5.10938 9.7922 5.10938 9.7922 5.10995 9.71334C5.10976 9.68731 5.10957 9.66129 5.10938 9.63448C5.13332 9.46548 5.25498 9.48181 5.39694 9.48076Z" fill="black"/>
<path d="M5.39694 7.69951C5.42555 7.69967 5.45416 7.69984 5.48364 7.70001C5.52912 7.69983 5.52912 7.69983 5.57551 7.69966C5.67768 7.69936 5.77984 7.6996 5.882 7.69983C5.95502 7.69973 6.02803 7.6996 6.10104 7.69943C6.29977 7.69909 6.49849 7.69923 6.69722 7.69946C6.90481 7.69965 7.11239 7.69948 7.31997 7.69936C7.66863 7.69922 8.01728 7.6994 8.36594 7.69976C8.76953 7.70016 9.17312 7.70003 9.5767 7.69962C9.92268 7.69928 10.2687 7.69924 10.6146 7.69943C10.8215 7.69955 11.0284 7.69956 11.2352 7.69932C11.4297 7.6991 11.6241 7.69925 11.8186 7.69968C11.8901 7.69978 11.9617 7.69975 12.0332 7.69959C12.1305 7.69938 12.2278 7.69964 12.3251 7.70001C12.3537 7.69984 12.3824 7.69968 12.4118 7.69951C12.6069 7.70096 12.6069 7.70096 12.6895 7.78365C12.6994 7.85323 12.6994 7.85323 12.6988 7.93209C12.6991 7.97112 12.6991 7.97112 12.6994 8.01095C12.6895 8.08053 12.6895 8.08053 12.6153 8.15474C12.5173 8.16208 12.4232 8.16474 12.3251 8.16417C12.2797 8.16434 12.2797 8.16434 12.2333 8.16452C12.1311 8.16482 12.0289 8.16458 11.9268 8.16435C11.8538 8.16445 11.7807 8.16458 11.7077 8.16474C11.509 8.16508 11.3103 8.16495 11.1116 8.16471C10.904 8.16453 10.6964 8.1647 10.4888 8.16482C10.1401 8.16495 9.79149 8.16477 9.44284 8.16442C9.03925 8.16402 8.63566 8.16415 8.23207 8.16456C7.8861 8.16489 7.54012 8.16494 7.19414 8.16475C6.98727 8.16463 6.7804 8.16462 6.57353 8.16486C6.37908 8.16507 6.18464 8.16493 5.99019 8.1645C5.91865 8.1644 5.84711 8.16443 5.77557 8.16459C5.67826 8.16479 5.58095 8.16454 5.48364 8.16417C5.45503 8.16433 5.42642 8.1645 5.39694 8.16467C5.20192 8.16322 5.20192 8.16322 5.11923 8.08053C5.10938 8.01095 5.10938 8.01095 5.10995 7.93209C5.10976 7.90606 5.10957 7.88004 5.10938 7.85323C5.13332 7.68423 5.25498 7.70056 5.39694 7.69951Z" fill="black"/>
<path d="M5.39694 5.91826C5.42555 5.91842 5.45416 5.91859 5.48364 5.91876C5.52912 5.91858 5.52912 5.91858 5.57551 5.91841C5.67768 5.91811 5.77984 5.91835 5.882 5.91858C5.95502 5.91848 6.02803 5.91835 6.10104 5.91818C6.29977 5.91784 6.49849 5.91798 6.69722 5.91821C6.90481 5.9184 7.11239 5.91823 7.31997 5.91811C7.66863 5.91797 8.01728 5.91815 8.36594 5.91851C8.76953 5.91891 9.17312 5.91878 9.5767 5.91837C9.92268 5.91803 10.2687 5.91799 10.6146 5.91818C10.8215 5.9183 11.0284 5.91831 11.2352 5.91807C11.4297 5.91785 11.6241 5.918 11.8186 5.91843C11.8901 5.91853 11.9617 5.9185 12.0332 5.91834C12.1305 5.91813 12.2278 5.91839 12.3251 5.91876C12.3537 5.91859 12.3824 5.91843 12.4118 5.91826C12.6069 5.91971 12.6069 5.91971 12.6895 6.0024C12.6994 6.07198 12.6994 6.07198 12.6988 6.15084C12.6991 6.18987 12.6991 6.18987 12.6994 6.2297C12.6895 6.29928 12.6895 6.29928 12.6153 6.37349C12.5173 6.38083 12.4232 6.38349 12.3251 6.38292C12.2797 6.38309 12.2797 6.38309 12.2333 6.38327C12.1311 6.38357 12.0289 6.38333 11.9268 6.3831C11.8538 6.3832 11.7807 6.38333 11.7077 6.38349C11.509 6.38383 11.3103 6.3837 11.1116 6.38346C10.904 6.38328 10.6964 6.38345 10.4888 6.38357C10.1401 6.3837 9.79149 6.38352 9.44284 6.38317C9.03925 6.38277 8.63566 6.3829 8.23207 6.38331C7.8861 6.38364 7.54012 6.38369 7.19414 6.3835C6.98727 6.38338 6.7804 6.38337 6.57353 6.38361C6.37908 6.38382 6.18464 6.38368 5.99019 6.38325C5.91865 6.38315 5.84711 6.38318 5.77557 6.38334C5.67826 6.38354 5.58095 6.38329 5.48364 6.38292C5.45503 6.38308 5.42642 6.38325 5.39694 6.38342C5.20192 6.38197 5.20192 6.38197 5.11923 6.29928C5.10938 6.2297 5.10938 6.2297 5.10995 6.15084C5.10976 6.12481 5.10957 6.09879 5.10938 6.07198C5.13332 5.90298 5.25498 5.91931 5.39694 5.91826Z" fill="black"/>
<path d="M5.39146 11.2624C5.43282 11.2622 5.47419 11.262 5.5168 11.2617C5.56164 11.2619 5.60648 11.262 5.65268 11.2622C5.72145 11.2621 5.72145 11.2621 5.7916 11.262C5.91359 11.2619 6.03557 11.2622 6.15756 11.2626C6.23244 11.2628 6.30731 11.2626 6.38218 11.2624C6.52557 11.2619 6.66896 11.262 6.81235 11.2622C6.85719 11.262 6.90203 11.2619 6.94823 11.2617C6.98959 11.262 7.03095 11.2622 7.07356 11.2624C7.12836 11.2625 7.12836 11.2625 7.18426 11.2626C7.27158 11.272 7.27158 11.272 7.34579 11.3462C7.35565 11.4158 7.35565 11.4158 7.35507 11.4947C7.35536 11.5337 7.35536 11.5337 7.35565 11.5735C7.34579 11.6431 7.34579 11.6431 7.27158 11.7173C7.18426 11.7268 7.18426 11.7268 7.07356 11.7269C7.0322 11.7272 6.99084 11.7274 6.94823 11.7277C6.90339 11.7275 6.85855 11.7274 6.81235 11.7272C6.74358 11.7273 6.74358 11.7273 6.67342 11.7274C6.55143 11.7275 6.42945 11.7272 6.30747 11.7268C6.23259 11.7266 6.15772 11.7268 6.08284 11.727C5.93945 11.7275 5.79607 11.7274 5.65268 11.7272C5.60784 11.7274 5.563 11.7275 5.5168 11.7277C5.47544 11.7274 5.43408 11.7272 5.39146 11.7269C5.35494 11.7269 5.31841 11.7268 5.28077 11.7268C5.19345 11.7173 5.19345 11.7173 5.11923 11.6431C5.10938 11.5735 5.10938 11.5735 5.10995 11.4947C5.10976 11.4687 5.10957 11.4426 5.10938 11.4158C5.13311 11.2483 5.25177 11.2627 5.39146 11.2624Z" fill="black"/>
</svg>
